<?xml version="1.0" standalone="no"?>
<!DOCTYPE svg PUBLIC "-//W3C//DTD SVG 20010904//EN"
 "http://www.w3.org/TR/2001/REC-SVG-20010904/DTD/svg10.dtd">
<svg version="1.0" xmlns="http://www.w3.org/2000/svg"
 width="594.000000pt" height="1177.000000pt" viewBox="0 0 594.000000 1177.000000"
 preserveAspectRatio="xMidYMid meet">
<metadata>
Created by potrace 1.12, written by Peter Selinger 2001-2015
</metadata>
<g transform="translate(0.000000,1177.000000) scale(0.100000,-0.100000)"
fill="#000000" stroke="none">
<path d="M1723 11564 c-9 -23 12 -37 121 -78 90 -34 100 -36 115 -22 22 23 4
36 -109 80 -108 41 -118 42 -127 20z"/>
<path d="M2483 11514 c-3 -8 -1 -20 4 -25 16 -16 1627 -631 1658 -632 24 -2
30 2 30 18 0 17 -114 64 -825 337 -454 174 -833 317 -843 317 -10 1 -20 -6
-24 -15z"/>
<path d="M3330 11427 c0 -22 57 -45 778 -321 427 -164 780 -301 785 -305 4 -4
-6 -25 -23 -45 -94 -120 -136 -324 -95 -476 38 -145 153 -290 280 -357 314
-164 701 1 801 342 26 88 23 240 -6 325 -83 245 -319 405 -571 386 -106 -7
-209 -47 -314 -120 -18 -13 -96 15 -810 290 -434 167 -798 304 -807 304 -12 0
-18 -8 -18 -23z m2203 -555 c181 -89 287 -257 287 -451 -1 -146 -46 -257 -144
-356 -207 -206 -525 -203 -723 8 -87 93 -129 187 -139 312 -10 121 39 270 118
357 l33 37 204 -80 c113 -44 211 -77 218 -75 7 3 13 14 13 25 0 19 -17 27
-292 131 -49 19 -88 37 -88 41 0 13 87 60 148 80 45 15 80 18 169 16 109 -3
115 -5 196 -45z"/>
<path d="M2874 11085 c-4 -9 -1 -22 7 -29 18 -16 1768 -686 1792 -686 23 0 22
36 -2 49 -29 16 -1743 673 -1768 679 -15 3 -25 -1 -29 -13z"/>
<path d="M2617 11014 c-30 -31 -7 -42 507 -239 283 -108 522 -195 533 -193 10
2 18 12 18 22 0 15 -88 52 -505 213 -542 208 -542 208 -553 197z"/>
<path d="M180 10549 c0 -6 -6 -9 -13 -6 -7 3 -13 -2 -13 -12 0 -26 31 -20 32
6 1 13 0 23 -2 23 -2 0 -4 -5 -4 -11z"/>
<path d="M2847 10162 c-33 -36 -8 -92 40 -92 25 0 53 30 53 57 0 46 -62 69
-93 35z m61 -35 c4 -20 -25 -34 -40 -19 -15 15 -1 44 19 40 10 -2 19 -11 21
-21z"/>
<path d="M3990 9841 c0 -24 13 -33 35 -25 23 9 14 38 -13 42 -16 3 -22 -2 -22
-17z m30 -1 c0 -5 -4 -10 -10 -10 -5 0 -10 5 -10 10 0 6 5 10 10 10 6 0 10 -4
10 -10z"/>
<path d="M870 9825 c10 -12 10 -18 -1 -32 -13 -16 -12 -17 4 -4 14 11 20 11
35 0 15 -13 16 -12 3 4 -11 14 -11 20 -1 32 15 18 -1 20 -18 3 -9 -9 -12 -9
-12 0 0 7 -5 12 -11 12 -8 0 -8 -5 1 -15z"/>
<path d="M3120 9177 c0 -8 11 -24 25 -37 l25 -24 -27 -28 c-35 -36 -21 -50 15
-15 l28 27 26 -26 c37 -38 58 -21 22 17 l-28 29 27 28 c35 37 22 50 -15 15
l-28 -27 -28 27 c-31 30 -42 33 -42 14z"/>
<path d="M2352 8974 c-208 -56 -426 -340 -508 -660 -13 -53 -24 -106 -24 -118
0 -11 -20 20 -45 70 -131 269 -314 285 -455 39 -40 -69 -86 -214 -99 -308 -16
-118 -15 -3689 1 -3705 7 -7 36 -12 65 -12 29 0 53 -2 53 -4 0 -2 -27 -52 -61
-110 -34 -59 -58 -113 -55 -121 5 -13 50 -15 298 -16 161 -1 353 0 426 1 72 1
132 -1 132 -6 0 -4 -59 -86 -132 -183 -73 -97 -132 -185 -132 -196 -1 -18 6
-20 81 -23 l82 -3 3 -37 3 -37 475 0 475 0 3 37 3 37 67 3 c53 2 67 6 70 20 2
10 -55 94 -132 197 -75 99 -136 183 -136 187 0 3 60 5 133 4 72 -1 265 -2 428
-1 239 1 298 4 302 15 3 7 -23 62 -58 122 l-64 109 42 3 c23 1 52 5 65 7 l22
5 0 1838 c0 1241 -3 1858 -11 1898 -34 197 -137 382 -241 435 -108 55 -225
-18 -311 -198 l-41 -86 -13 64 c-47 232 -165 461 -310 600 -81 78 -137 113
-218 133 -72 19 -113 19 -183 0z m236 -80 c172 -86 332 -321 409 -603 26 -93
26 -105 29 -426 2 -263 0 -324 -9 -300 -29 74 -110 231 -149 288 -64 96 -174
199 -252 237 -90 45 -201 53 -289 22 -161 -57 -314 -230 -423 -479 l-34 -78
-2 205 c-5 353 -2 415 26 523 71 276 238 527 408 612 61 30 80 35 143 35 63 0
82 -5 143 -36z m-971 -500 c60 -45 114 -138 159 -274 l28 -85 4 -392 4 -393
-161 0 -161 0 -2 298 -3 297 -109 3 -109 3 5 97 c8 154 70 319 157 415 64 71
122 80 188 31z m1811 4 c59 -37 126 -153 168 -295 22 -75 27 -114 31 -265 l6
-178 -145 0 c-99 0 -148 -4 -156 -12 -9 -9 -12 -68 -12 -205 l0 -193 -115 0
-115 0 0 384 c0 380 0 385 25 470 45 154 116 269 188 305 46 24 73 21 125 -11z
m-1998 -873 l0 -275 -80 0 -80 0 0 275 0 275 80 0 80 0 0 -275z m1483 138 c67
-144 97 -249 108 -383 4 -63 9 -676 9 -1362 l0 -1248 -210 0 -210 0 0 346 c0
393 -1 396 -75 439 -85 50 -187 28 -242 -54 -23 -34 -23 -37 -23 -382 l0 -349
-200 0 -200 0 0 1324 c0 1121 2 1335 15 1393 23 110 82 269 127 340 l20 33
417 0 418 0 46 -97z m717 -238 l0 -175 -125 0 -125 0 0 175 0 175 125 0 125 0
0 -175z m-1990 -438 c0 -145 3 -206 12 -215 7 -7 42 -12 85 -12 l74 0 -3 -112
-3 -113 -267 -3 -268 -2 0 330 0 330 185 0 185 0 0 -203z m170 18 l0 -185 -55
0 -55 0 0 185 0 185 55 0 55 0 0 -185z m1818 -287 l-3 -473 -267 -3 -268 -2 0
475 0 475 270 0 270 0 -2 -472z m-1820 -475 l-3 -238 -237 -546 c-149 -341
-238 -557 -238 -578 0 -41 22 -83 54 -104 20 -14 60 -17 223 -19 l198 -3 3
-207 2 -208 -270 0 -270 0 0 1070 0 1070 271 0 270 0 -3 -237z m1822 -978 l0
-925 -270 0 -270 0 0 210 0 210 200 0 200 0 38 34 c33 31 37 39 36 83 -1 49
-1 50 -385 932 l-89 203 0 89 0 89 270 0 270 0 0 -925z m-1820 75 l0 -530
-190 0 c-189 0 -191 0 -215 25 -14 13 -25 31 -25 40 0 9 44 118 98 242 l97
226 5 -54 c4 -46 8 -54 25 -54 19 0 20 8 25 125 4 108 9 133 32 185 l27 60 3
-300 3 -300 22 -3 22 -3 3 373 3 373 29 63 c16 34 31 62 33 62 1 0 3 -238 3
-530z m1339 401 l51 -119 0 -312 0 -311 23 3 c22 3 22 3 27 248 l5 245 28 -63
c24 -56 27 -75 27 -172 0 -89 3 -109 16 -114 24 -9 34 2 34 40 0 19 3 34 8 34
12 -1 142 -313 142 -342 0 -16 -9 -37 -20 -48 -19 -19 -33 -20 -210 -20 l-190
0 0 525 c0 289 2 525 4 525 2 0 27 -54 55 -119z m-653 -326 c41 -17 64 -63 64
-130 l0 -46 -117 3 -118 3 -3 35 c-5 58 18 110 58 131 42 23 69 24 116 4z m59
-260 l0 -30 -115 0 c-103 0 -115 2 -118 18 -9 44 1 48 120 45 l113 -3 0 -30z
m5 -120 l0 -35 -120 0 -120 0 0 28 c0 16 3 32 7 35 3 4 57 7 120 7 l113 0 0
-35z m-3 -350 c2 -285 -1 -301 -57 -330 -68 -35 -152 -4 -169 62 -10 40 -15
509 -5 525 3 5 56 7 117 6 l112 -3 2 -260z m-647 -130 c-48 -84 -43 -86 153
-83 191 4 195 6 148 86 l-30 52 44 0 45 0 0 -102 c0 -88 4 -109 23 -142 62
-110 247 -105 300 7 12 25 17 63 17 136 l0 101 45 0 c25 0 45 -2 45 -4 0 -2
-11 -24 -25 -47 -29 -51 -31 -74 -9 -83 20 -8 298 -8 318 0 22 9 20 32 -9 83
-14 23 -25 45 -25 47 0 2 18 4 40 4 l40 0 0 -265 0 -265 -587 0 -586 0 6 167
c4 91 7 210 7 265 l0 98 36 0 35 0 -31 -55z m229 19 c12 -19 21 -37 21 -40 0
-2 -45 -4 -100 -4 l-101 0 12 23 c25 48 40 57 95 57 49 0 53 -2 73 -36z m761
4 c11 -18 20 -36 20 -40 0 -5 -43 -8 -95 -8 -52 0 -95 3 -95 8 0 4 9 22 20 40
18 30 23 32 75 32 52 0 57 -2 75 -32z m-1438 -355 c3 -54 5 -58 28 -58 23 0
25 4 28 58 3 56 4 57 32 57 30 0 30 0 30 -60 0 -57 1 -60 25 -60 24 0 25 3 25
60 0 57 1 60 24 60 20 0 33 -17 79 -97 l55 -98 -240 -3 c-133 -1 -243 0 -246
2 -2 3 11 31 29 63 67 119 78 133 104 133 22 0 24 -4 27 -57z m348 0 c0 -63 1
-63 -49 20 l-23 37 36 0 36 0 0 -57z m1324 26 c-8 -17 -24 -45 -35 -63 l-19
-31 0 63 0 62 35 0 36 0 -17 -31z m128 -26 c2 -47 6 -58 22 -61 26 -5 36 15
36 71 0 46 1 47 30 47 l30 0 0 -60 c0 -57 1 -60 25 -60 24 0 25 3 25 60 0 59
0 60 28 60 25 0 34 -11 84 -97 l56 -98 -241 -3 c-132 -1 -242 0 -245 2 -2 3
20 48 49 100 42 75 59 96 76 96 20 0 22 -6 25 -57z m-1060 -330 c3 -120 4
-128 23 -128 19 0 20 8 23 128 l3 127 29 0 29 0 3 -127 c3 -120 4 -128 23
-128 19 0 20 8 23 128 l3 127 29 0 29 0 3 -127 c3 -120 4 -128 23 -128 19 0
20 8 23 128 l3 127 29 0 29 0 3 -127 c3 -120 4 -128 23 -128 19 0 20 8 23 128
l3 127 29 0 29 0 3 -127 c3 -120 4 -128 23 -128 19 0 20 8 23 128 3 127 3 127
27 127 19 0 49 -33 152 -165 70 -91 129 -170 131 -175 2 -6 -207 -9 -552 -9
-306 0 -556 2 -556 5 0 3 59 82 131 175 105 136 135 169 154 169 24 0 24 0 27
-127z m686 -285 c-4 -10 -98 -13 -428 -13 -330 0 -424 3 -427 13 -4 9 86 12
427 12 341 0 431 -3 428 -12z"/>
<path d="M1340 7730 c0 -5 5 -10 10 -10 6 0 10 5 10 10 0 6 -4 10 -10 10 -5 0
-10 -4 -10 -10z"/>
<path d="M1340 7305 c0 -8 5 -15 10 -15 6 0 10 7 10 15 0 8 -4 15 -10 15 -5 0
-10 -7 -10 -15z"/>
<path d="M2026 7455 c-47 -43 -60 -122 -32 -189 28 -68 16 -66 466 -66 450 0
438 -2 466 66 28 67 15 146 -32 189 l-27 25 -407 0 -407 0 -27 -25z m824 -35
c40 -22 48 -112 12 -152 -14 -17 -46 -18 -402 -18 -356 0 -388 1 -402 18 -35
39 -29 129 10 152 23 13 757 13 782 0z"/>
<path d="M3420 7550 c0 -5 5 -10 10 -10 6 0 10 5 10 10 0 6 -4 10 -10 10 -5 0
-10 -4 -10 -10z"/>
<path d="M3570 7550 c0 -5 5 -10 10 -10 6 0 10 5 10 10 0 6 -4 10 -10 10 -5 0
-10 -4 -10 -10z"/>
<path d="M3420 7305 c0 -8 5 -15 10 -15 6 0 10 7 10 15 0 8 -4 15 -10 15 -5 0
-10 -7 -10 -15z"/>
<path d="M3570 7305 c0 -8 5 -15 10 -15 6 0 10 7 10 15 0 8 -4 15 -10 15 -5 0
-10 -7 -10 -15z"/>
<path d="M1352 7128 c-19 -19 -14 -37 11 -43 12 -3 65 -5 117 -3 84 3 95 5 98
22 2 10 -2 22 -10 27 -21 14 -202 11 -216 -3z"/>
<path d="M1350 7045 c-7 -8 -10 -22 -6 -30 4 -12 26 -15 116 -15 90 0 112 3
116 15 14 34 -15 45 -116 45 -74 0 -101 -4 -110 -15z"/>
<path d="M1343 6955 c-11 -30 12 -36 123 -33 101 3 109 4 109 23 0 19 -8 20
-113 23 -95 2 -113 0 -119 -13z"/>
<path d="M1343 6875 c-11 -30 12 -36 123 -33 101 3 109 4 109 23 0 19 -8 20
-113 23 -95 2 -113 0 -119 -13z"/>
<path d="M1343 6795 c-11 -30 12 -36 123 -33 101 3 109 4 109 23 0 19 -8 20
-113 23 -95 2 -113 0 -119 -13z"/>
<path d="M1343 6715 c-11 -30 12 -36 123 -33 101 3 109 4 109 23 0 19 -8 20
-113 23 -95 2 -113 0 -119 -13z"/>
<path d="M1344 6635 c-13 -34 14 -45 115 -45 103 0 125 7 119 36 -3 17 -15 19
-116 22 -94 2 -113 0 -118 -13z"/>
<path d="M1742 7141 c2 -7 7 -12 11 -12 12 1 9 15 -3 20 -7 2 -11 -2 -8 -8z"/>
<path d="M1740 6870 c0 -5 4 -10 9 -10 6 0 13 5 16 10 3 6 -1 10 -9 10 -9 0
-16 -4 -16 -10z"/>
<path d="M3243 7105 c-11 -30 12 -36 123 -33 101 3 109 4 109 23 0 19 -8 20
-113 23 -95 2 -113 0 -119 -13z"/>
<path d="M3250 7025 c-10 -12 -10 -18 0 -30 10 -11 35 -15 109 -15 103 0 125
7 119 36 -3 17 -15 19 -109 22 -86 2 -108 0 -119 -13z"/>
<path d="M3243 6935 c-11 -30 12 -36 123 -33 101 3 109 4 109 23 0 19 -8 20
-113 23 -95 2 -113 0 -119 -13z"/>
<path d="M3250 6855 c-10 -12 -10 -18 0 -30 10 -11 35 -15 109 -15 103 0 125
7 119 36 -3 17 -15 19 -109 22 -86 2 -108 0 -119 -13z"/>
<path d="M3243 6765 c-11 -30 12 -36 123 -33 101 3 109 4 109 23 0 19 -8 20
-113 23 -95 2 -113 0 -119 -13z"/>
<path d="M3250 6685 c-10 -12 -10 -18 0 -30 10 -11 35 -15 109 -15 103 0 125
7 119 36 -3 17 -15 19 -109 22 -86 2 -108 0 -119 -13z"/>
<path d="M3243 6595 c-11 -30 12 -36 123 -33 101 3 109 4 109 23 0 19 -8 20
-113 23 -95 2 -113 0 -119 -13z"/>
<path d="M3250 6515 c-10 -12 -10 -18 0 -30 10 -11 35 -15 109 -15 103 0 125
7 119 36 -3 17 -15 19 -109 22 -86 2 -108 0 -119 -13z"/>
<path d="M3243 6425 c-11 -30 12 -36 123 -33 101 3 109 4 109 23 0 19 -8 20
-113 23 -95 2 -113 0 -119 -13z"/>
<path d="M3250 6345 c-10 -12 -10 -18 0 -30 10 -11 35 -15 109 -15 103 0 125
7 119 36 -3 17 -15 19 -109 22 -86 2 -108 0 -119 -13z"/>
<path d="M1317 6384 c-8 -8 1 -24 14 -24 5 0 9 7 9 15 0 15 -12 20 -23 9z"/>
<path d="M1740 6375 c0 -9 5 -15 11 -13 6 2 11 8 11 13 0 5 -5 11 -11 13 -6 2
-11 -4 -11 -13z"/>
<path d="M1316 4442 c-3 -6 -1 -14 5 -17 15 -10 25 3 12 16 -7 7 -13 7 -17 1z"/>
<path d="M1745 4439 c-10 -15 3 -25 16 -12 7 7 7 13 1 17 -6 3 -14 1 -17 -5z"/>
<path d="M3130 6085 c0 -8 5 -15 10 -15 6 0 10 7 10 15 0 8 -4 15 -10 15 -5 0
-10 -7 -10 -15z"/>
<path d="M3556 6092 c-3 -6 -1 -14 5 -17 15 -10 25 3 12 16 -7 7 -13 7 -17 1z"/>
<path d="M3136 4441 c-4 -7 -5 -15 -2 -18 9 -9 19 4 14 18 -4 11 -6 11 -12 0z"/>
<path d="M3556 4442 c-3 -6 -1 -14 5 -17 15 -10 25 3 12 16 -7 7 -13 7 -17 1z"/>
<path d="M5645 8935 c-31 -30 -32 -73 -4 -109 16 -21 29 -26 63 -26 52 0 78
24 79 74 2 76 -85 115 -138 61z m92 -41 c8 -22 -10 -49 -32 -49 -10 0 -22 7
-28 16 -15 24 -1 49 28 49 15 0 28 -7 32 -16z"/>
<path d="M4969 8144 c-13 -37 11 -74 49 -74 35 0 52 16 52 50 0 35 -17 50 -57
50 -27 0 -35 -5 -44 -26z m71 -24 c0 -21 -33 -29 -45 -10 -9 15 4 30 26 30 12
0 19 -7 19 -20z"/>
<path d="M3894 7995 c-4 -10 11 -34 40 -65 25 -27 46 -52 46 -55 0 -4 -21 -31
-46 -60 -42 -50 -49 -75 -21 -75 6 0 33 21 60 48 l48 47 41 -47 c40 -48 78
-63 78 -32 0 10 -21 39 -46 66 l-46 49 46 49 c25 27 46 56 46 64 0 35 -25 27
-73 -24 l-51 -53 -45 52 c-47 53 -67 62 -77 36z"/>
<path d="M651 7901 c-16 -29 -14 -46 8 -65 29 -26 73 -17 85 17 14 39 -2 61
-47 65 -27 2 -38 -2 -46 -17z m69 -27 c0 -19 -28 -30 -42 -16 -8 8 -8 15 1 26
14 17 41 10 41 -10z"/>
<path d="M2137 3063 c-3 -10 -7 -508 -9 -1108 l-3 -1090 22 -3 c18 -3 22 3 26
35 3 21 7 520 9 1108 l3 1070 -22 3 c-14 2 -23 -3 -26 -15z"/>
<path d="M2362 1848 c-9 -13 -24 -1768 -14 -1796 7 -21 41 -14 46 11 3 12 7
416 10 898 5 864 4 899 -25 899 -4 0 -11 -6 -17 -12z"/>
<path d="M2786 1465 c-3 -9 -6 -264 -6 -566 0 -490 2 -550 16 -556 8 -3 19 -2
24 3 4 5 10 261 12 569 l3 560 -21 3 c-13 2 -24 -4 -28 -13z"/>
</g>
</svg>
