<?xml version="1.0"?>
<svg width="594" height="1177" xmlns="http://www.w3.org/2000/svg" preserveAspectRatio="xMidYMid meet">
 <metadata>Created by potrace 1.12, written by Peter Selinger 2001-2015</metadata>

 <g>
  <title>background</title>
  <rect fill="none" id="canvas_background" height="402" width="582" y="-1" x="-1"/>
 </g>
 <g>
  <title>Layer 1</title>
  <path id="svg_2" d="m172.300003,20.599983c-0.899994,2.299999 1.199997,3.699999 12.100006,7.799999c9,3.4 10,3.6 11.5,2.200001c2.199997,-2.300001 0.399994,-3.6 -10.900009,-8c-10.800003,-4.1 -11.800003,-4.200001 -12.699997,-2z"/>
  <path id="svg_3" d="m248.300003,25.599983c-0.300003,0.799999 -0.100006,2 0.399994,2.5c1.600006,1.6 162.699997,63.099998 165.800003,63.199997c2.399994,0.200005 3,-0.199997 3,-1.799995c0,-1.700005 -11.399994,-6.400002 -82.5,-33.700001c-45.399994,-17.400002 -83.300003,-31.700001 -84.300003,-31.700001c-1,-0.1 -2,0.6 -2.399994,1.5z"/>
  <path id="svg_4" d="m333,34.299984c0,2.200001 5.700012,4.5 77.800018,32.100002c42.699982,16.399994 78,30.099998 78.5,30.5c0.399994,0.399994 -0.600006,2.5 -2.300018,4.5c-9.399994,12 -13.600006,32.400002 -9.5,47.599998c3.800018,14.5 15.300018,29 28,35.699997c31.400024,16.400009 70.100037,-0.099991 80.100037,-34.199997c2.599976,-8.800003 2.299988,-24 -0.600037,-32.5c-8.299988,-24.5 -31.899963,-40.5 -57.099976,-38.599998c-10.600037,0.699997 -20.900024,4.699997 -31.400024,12c-1.799988,1.299995 -9.600006,-1.5 -81,-29.000004c-43.399994,-16.700001 -79.799988,-30.4 -80.699982,-30.4c-1.200012,0 -1.800018,0.800001 -1.800018,2.300001zm220.299988,55.499996c18.100037,8.900002 28.700012,25.700005 28.700012,45.099998c-0.099976,14.600006 -4.599976,25.700012 -14.399963,35.600006c-20.700012,20.600006 -52.5,20.300003 -72.300018,-0.800003c-8.700012,-9.300003 -12.900024,-18.699997 -13.900024,-31.199997c-1,-12.099998 3.900024,-27 11.800018,-35.700005l3.299988,-3.699997l20.400024,8c11.299988,4.400002 21.099976,7.700005 21.799988,7.5c0.700012,-0.299995 1.299988,-1.400002 1.299988,-2.5c0,-1.900002 -1.700012,-2.699997 -29.199982,-13.099998c-4.900024,-1.900002 -8.800018,-3.700005 -8.800018,-4.099998c0,-1.300003 8.700012,-6 14.799988,-8c4.5,-1.5 8,-1.800003 16.900024,-1.600006c10.900024,0.300003 11.5,0.5 19.599976,4.5z"/>
  <path id="svg_5" d="m287.399994,68.499985c-0.399994,0.900002 -0.099976,2.199997 0.700012,2.900002c1.799988,1.599998 176.799988,68.599998 179.200012,68.599998c2.299988,0 2.199982,-3.600006 -0.200012,-4.899994c-2.899994,-1.600006 -174.299988,-67.300011 -176.799988,-67.900009c-1.5,-0.299995 -2.5,0.099998 -2.900024,1.300003z"/>
  <path id="svg_6" d="m261.700012,75.599983c-3,3.099998 -0.700012,4.199997 50.699982,23.900002c28.300018,10.800003 52.200012,19.5 53.300018,19.300003c1,-0.200005 1.799988,-1.200005 1.799988,-2.200005c0,-1.5 -8.799988,-5.199997 -50.5,-21.300003c-54.199982,-20.799995 -54.199982,-20.799995 -55.299988,-19.699997z"/>
  <path id="svg_7" d="m18,122.099983c0,0.599998 -0.6,0.900002 -1.299999,0.599998c-0.700001,-0.299995 -1.3,0.200005 -1.3,1.200005c0,2.599998 3.099999,2 3.2,-0.599998c0.1,-1.300003 0,-2.300003 -0.200001,-2.300003c-0.199999,0 -0.4,0.5 -0.4,1.099998z"/>
  <path id="svg_8" d="m284.700012,160.799988c-3.300018,3.599991 -0.800018,9.199997 4,9.199997c2.5,0 5.299988,-3 5.299988,-5.699997c0,-4.600006 -6.199982,-6.900009 -9.299988,-3.5zm6.100006,3.5c0.399994,2 -2.5,3.399994 -4,1.899994c-1.5,-1.5 -0.100006,-4.399994 1.899994,-4c1,0.199997 1.899994,1.100006 2.100006,2.100006z"/>
  <path id="svg_9" d="m399,192.899979c0,2.400009 1.300018,3.300003 3.5,2.5c2.300018,-0.899994 1.399994,-3.799988 -1.299988,-4.199997c-1.600006,-0.300003 -2.200012,0.199997 -2.200012,1.699997zm3,0.100006c0,0.5 -0.399994,1 -1,1c-0.5,0 -1,-0.5 -1,-1c0,-0.600006 0.5,-1 1,-1c0.600006,0 1,0.399994 1,1z"/>
  <path id="svg_10" d="m87,194.499985c1,1.199997 1,1.800003 -0.099998,3.199997c-1.300003,1.600006 -1.199997,1.699997 0.400002,0.400009c1.400002,-1.100006 2,-1.100006 3.5,0c1.5,1.299988 1.599998,1.199997 0.299995,-0.400009c-1.099998,-1.399994 -1.099998,-2 -0.099998,-3.199997c1.5,-1.800003 -0.099998,-2 -1.799995,-0.300003c-0.900002,0.900009 -1.200005,0.900009 -1.200005,0c0,-0.699997 -0.5,-1.199997 -1.099998,-1.199997c-0.800003,0 -0.800003,0.5 0.099998,1.5z"/>
  <path id="svg_11" d="m312,259.299988c0,0.799988 1.100006,2.399994 2.5,3.700012l2.5,2.399994l-2.699982,2.799988c-3.5,3.600006 -2.100006,5 1.5,1.5l2.799988,-2.699982l2.600006,2.599976c3.699982,3.800018 5.799988,2.100006 2.199982,-1.699982l-2.799988,-2.899994l2.700012,-2.800018c3.5,-3.699982 2.199982,-5 -1.5,-1.5l-2.800018,2.700012l-2.799988,-2.700012c-3.100006,-3 -4.200012,-3.299988 -4.200012,-1.399994z"/>
  <path id="svg_12" d="m235.199997,279.599976c-20.799988,5.600006 -42.599991,34 -50.799988,66c-1.300003,5.300018 -2.400009,10.600006 -2.400009,11.800018c0,1.100006 -2,-2 -4.5,-7c-13.099991,-26.899994 -31.399994,-28.5 -45.5,-3.899994c-4,6.899994 -8.599998,21.399994 -9.900002,30.799988c-1.599998,11.799988 -1.5,368.900024 0.100006,370.5c0.699997,0.700012 3.599998,1.200012 6.499992,1.200012c2.900009,0 5.300003,0.200012 5.300003,0.399963c0,0.200012 -2.699997,5.200012 -6.099998,11c-3.400002,5.900024 -5.800003,11.300049 -5.5,12.100037c0.5,1.299988 5,1.5 29.799995,1.599976c16.100006,0.100037 35.300003,0 42.600006,-0.099976c7.199997,-0.099976 13.199997,0.099976 13.199997,0.599976c0,0.400024 -5.899994,8.600037 -13.199997,18.300049c-7.300003,9.699951 -13.199997,18.5 -13.199997,19.599976c-0.100006,1.799988 0.599991,2 8.099991,2.299988l8.200012,0.299988l0.299988,3.700012l0.300003,3.700012l47.5,0l47.5,0l0.300018,-3.700012l0.299988,-3.700012l6.700012,-0.299988c5.299988,-0.200012 6.699982,-0.599976 7,-2c0.199982,-1 -5.5,-9.399963 -13.200012,-19.700012c-7.5,-9.899963 -13.600006,-18.299988 -13.600006,-18.699951c0,-0.300049 6,-0.5 13.300018,-0.400024c7.199982,0.099976 26.5,0.200012 42.799988,0.099976c23.899994,-0.099976 29.799988,-0.399963 30.200012,-1.5c0.299988,-0.699951 -2.300018,-6.199951 -5.800018,-12.200012l-6.399994,-10.899963l4.200012,-0.299988c2.299988,-0.100037 5.199982,-0.5 6.5,-0.700012l2.199982,-0.5l0,-183.799988c0,-124.100037 -0.299988,-185.800018 -1.100006,-189.800018c-3.399994,-19.700012 -13.699982,-38.200012 -24.099976,-43.5c-10.800018,-5.5 -22.5,1.799988 -31.100006,19.799988l-4.100006,8.600006l-1.299988,-6.399994c-4.700012,-23.200012 -16.5,-46.100006 -31,-60c-8.100006,-7.800018 -13.700012,-11.300018 -21.800018,-13.300018c-7.199997,-1.899994 -11.300003,-1.899994 -18.300003,0zm23.600021,8c17.199982,8.600006 33.199982,32.100006 40.899994,60.300018c2.600006,9.299988 2.600006,10.5 2.899994,42.600006c0.200012,26.299988 0,32.399994 -0.899994,30c-2.899994,-7.400024 -11,-23.100006 -14.899994,-28.800018c-6.400024,-9.600006 -17.400024,-19.899994 -25.200012,-23.699982c-9,-4.5 -20.100006,-5.300018 -28.900009,-2.200012c-16.099991,5.700012 -31.399994,23 -42.299988,47.899994l-3.400009,7.800018l-0.199997,-20.5c-0.5,-35.300018 -0.199997,-41.5 2.600006,-52.300018c7.099991,-27.600006 23.799988,-52.699982 40.799988,-61.199982c6.100006,-3 8,-3.5 14.300003,-3.5c6.300003,0 8.199997,0.5 14.300018,3.599976zm-97.100021,50c6,4.5 11.400009,13.800018 15.900009,27.400024l2.800003,8.5l0.399994,39.199982l0.399994,39.300018l-16.099991,0l-16.100006,0l-0.199997,-29.800018l-0.300003,-29.699982l-10.899994,-0.300018l-10.900002,-0.299988l0.5,-9.700012c0.799995,-15.399994 6.999992,-31.899994 15.700005,-41.5c6.399994,-7.100006 12.199997,-8 18.799988,-3.100006zm181.100021,-0.399994c5.899994,3.700012 12.599976,15.300018 16.799988,29.5c2.200012,7.5 2.700012,11.399994 3.100006,26.5l0.600006,17.800018l-14.5,0c-9.900024,0 -14.800018,0.399994 -15.600006,1.199982c-0.899994,0.899994 -1.200012,6.800018 -1.200012,20.5l0,19.300018l-11.5,0l-11.5,0l0,-38.400024c0,-38 0,-38.5 2.5,-47c4.5,-15.399994 11.600006,-26.899994 18.800018,-30.5c4.599976,-2.399994 7.299988,-2.099976 12.5,1.100006zm-199.800018,87.300018l0,27.5l-8,0l-8,0l0,-27.5l0,-27.5l8,0l8,0l0,27.5zm148.300018,-13.800018c6.699982,14.399994 9.699982,24.899994 10.799988,38.300018c0.399994,6.299988 0.899994,67.599976 0.899994,136.200012l0,124.799988l-21,0l-21,0l0,-34.600037c0,-39.299988 -0.100006,-39.599976 -7.5,-43.899963c-8.5,-5 -18.699997,-2.799988 -24.199997,5.399963c-2.300003,3.400024 -2.300003,3.700012 -2.300003,38.200012l0,34.900024l-20,0l-20,0l0,-132.400024c0,-112.099976 0.199997,-133.5 1.5,-139.299988c2.300003,-11 8.199997,-26.899994 12.699997,-34l2,-3.299988l41.700012,0l41.800003,0l4.600006,9.699982zm71.699982,23.800018l0,17.5l-12.5,0l-12.5,0l0,-17.5l0,-17.5l12.5,0l12.5,0l0,17.5zm-199,43.799988c0,14.5 0.300003,20.600006 1.199997,21.5c0.700012,0.700012 4.200012,1.200012 8.5,1.200012l7.400009,0l-0.300003,11.200012l-0.300003,11.299988l-26.699997,0.299988l-26.800003,0.200012l0,-33l0,-33l18.5,0l18.5,0l0,20.299988zm17,-1.799988l0,18.5l-5.5,0l-5.5,0l0,-18.5l0,-18.5l5.5,0l5.5,0l0,18.5zm181.800018,28.699982l-0.300018,47.300018l-26.699982,0.299988l-26.800018,0.200012l0,-47.5l0,-47.5l27,0l27,0l-0.199982,47.199982zm-182.000015,47.500031l-0.300003,23.799988l-23.699997,54.599976c-14.899994,34.100037 -23.800003,55.700012 -23.800003,57.799988c0,4.100037 2.199997,8.300049 5.400009,10.400024c2,1.400024 6,1.700012 22.299988,1.900024l19.800003,0.299988l0.300003,20.700012l0.199997,20.799988l-27,0l-27,0l0,-107l0,-107l27.100006,0l27,0l-0.300003,23.700012zm182.199997,97.799988l0,92.5l-27,0l-27,0l0,-21l0,-21l20,0l20,0l3.800018,-3.400024c3.299988,-3.099976 3.699982,-3.899963 3.599976,-8.299988c-0.099976,-4.900024 -0.099976,-5 -38.5,-93.200012l-8.899994,-20.299988l0,-8.900024l0,-8.899963l27,0l27,0l0,92.5zm-182,-7.5l0,53l-19,0c-18.899994,0 -19.099991,0 -21.5,-2.5c-1.399994,-1.299988 -2.5,-3.100037 -2.5,-4c0,-0.900024 4.400009,-11.799988 9.800003,-24.200012l9.699997,-22.599976l0.5,5.399963c0.400009,4.600037 0.800003,5.400024 2.5,5.400024c1.900009,0 2,-0.799988 2.5,-12.5c0.400009,-10.799988 0.900009,-13.299988 3.199997,-18.5l2.700012,-6l0.299988,30l0.300003,30l2.199997,0.299988l2.200012,0.299988l0.299988,-37.299988l0.300003,-37.299988l2.900009,-6.299988c1.599991,-3.400024 3.099991,-6.200012 3.299988,-6.200012c0.100006,0 0.300003,23.799988 0.300003,53zm133.899994,-40.100037l5.100006,11.900024l0,31.200012l0,31.099976l2.300018,-0.299988c2.199982,-0.299988 2.199982,-0.299988 2.699982,-24.799988l0.5,-24.5l2.800018,6.299988c2.399994,5.599976 2.699982,7.5 2.699982,17.200012c0,8.899963 0.300018,10.899963 1.600006,11.399963c2.399994,0.900024 3.399994,-0.199951 3.399994,-4c0,-1.899963 0.300018,-3.399963 0.800018,-3.399963c1.199982,0.099976 14.199982,31.299988 14.199982,34.200012c0,1.599976 -0.899994,3.699951 -2,4.799988c-1.899994,1.899963 -3.299988,2 -21,2l-19,0l0,-52.5c0,-28.900024 0.200012,-52.5 0.399994,-52.5c0.200012,0 2.700012,5.399963 5.5,11.899963zm-65.299988,32.600037c4.099991,1.700012 6.399994,6.299988 6.399994,13l0,4.599976l-11.699997,-0.299988l-11.800003,-0.299988l-0.300003,-3.5c-0.5,-5.799988 1.800003,-11 5.800003,-13.100037c4.199997,-2.299988 6.900009,-2.399963 11.600006,-0.399963zm5.899994,26l0,3l-11.5,0c-10.300003,0 -11.5,-0.200012 -11.800003,-1.799988c-0.899994,-4.400024 0.100006,-4.800049 12,-4.5l11.300003,0.299988l0,3zm0.5,12l0,3.5l-12,0l-12,0l0,-2.799988c0,-1.600037 0.300003,-3.200012 0.699997,-3.5c0.300003,-0.400024 5.700012,-0.700012 12,-0.700012l11.300003,0l0,3.5zm-0.300003,35c0.200012,28.5 -0.099991,30.099976 -5.699997,33c-6.800003,3.5 -15.199997,0.399963 -16.899994,-6.200012c-1,-4 -1.5,-50.900024 -0.5,-52.5c0.300003,-0.5 5.599991,-0.700012 11.699997,-0.599976l11.199997,0.299988l0.199997,26zm-64.699997,13c-4.800003,8.399963 -4.300003,8.599976 15.300003,8.299988c19.100006,-0.400024 19.5,-0.599976 14.800003,-8.599976l-3,-5.200012l4.399994,0l4.5,0l0,10.200012c0,8.799988 0.400009,10.899963 2.300003,14.199951c6.199997,11 24.699997,10.5 30.000015,-0.699951c1.199982,-2.5 1.699982,-6.300049 1.699982,-13.600037l0,-10.099976l4.5,0c2.5,0 4.5,0.200012 4.5,0.399963c0,0.200012 -1.100006,2.400024 -2.5,4.700012c-2.899994,5.100037 -3.100006,7.400024 -0.899994,8.299988c2,0.800049 29.799988,0.800049 31.799988,0c2.200012,-0.899963 2,-3.199951 -0.899994,-8.299988c-1.399994,-2.299988 -2.5,-4.5 -2.5,-4.700012c0,-0.199951 1.800018,-0.399963 4,-0.399963l4,0l0,26.5l0,26.5l-58.699997,0l-58.600006,0l0.600006,-16.700012c0.399994,-9.099976 0.699997,-21 0.699997,-26.5l0,-9.799988l3.600006,0l3.5,0l-3.100006,5.5zm22.900009,-1.900024c1.199997,1.900024 2.099991,3.700012 2.099991,4c0,0.200012 -4.5,0.400024 -10,0.400024l-10.099991,0l1.199997,-2.299988c2.5,-4.800049 4,-5.700012 9.5,-5.700012c4.899994,0 5.300003,0.200012 7.300003,3.599976zm76.099991,-0.399963c1.100006,1.799988 2,3.599976 2,4c0,0.5 -4.299988,0.799988 -9.5,0.799988c-5.199982,0 -9.5,-0.299988 -9.5,-0.799988c0,-0.400024 0.899994,-2.200012 2,-4c1.800018,-3 2.300018,-3.200012 7.5,-3.200012c5.200012,0 5.700012,0.200012 7.5,3.200012zm-143.800003,35.5c0.300003,5.399963 0.5,5.799988 2.800003,5.799988c2.300003,0 2.5,-0.400024 2.800003,-5.799988c0.300003,-5.600037 0.399994,-5.700012 3.199997,-5.700012c3,0 3,0 3,6c0,5.700012 0.100006,6 2.5,6c2.400009,0 2.5,-0.299988 2.5,-6c0,-5.700012 0.100006,-6 2.400009,-6c2,0 3.299988,1.700012 7.899994,9.700012l5.5,9.799988l-24,0.299988c-13.300003,0.099976 -24.300003,0 -24.600006,-0.200012c-0.199997,-0.299988 1.100006,-3.099976 2.900009,-6.299988c6.699997,-11.900024 7.800003,-13.299988 10.399994,-13.299988c2.199997,0 2.400009,0.399963 2.699997,5.700012zm34.800003,0c0,6.299988 0.100006,6.299988 -4.899994,-2l-2.300003,-3.700012l3.600006,0l3.599991,0l0,5.700012zm132.399994,-2.600037c-0.799988,1.700012 -2.399994,4.5 -3.5,6.299988l-1.899994,3.100037l0,-6.299988l0,-6.200012l3.5,0l3.600006,0l-1.700012,3.099976zm12.800018,2.600037c0.199982,4.699951 0.600006,5.799988 2.199982,6.099976c2.600006,0.5 3.600006,-1.5 3.600006,-7.099976c0,-4.600037 0.100006,-4.700012 3,-4.700012l3,0l0,6c0,5.700012 0.100006,6 2.5,6c2.399994,0 2.5,-0.299988 2.5,-6c0,-5.900024 0,-6 2.800018,-6c2.5,0 3.399994,1.099976 8.399994,9.700012l5.600006,9.799988l-24.100006,0.299988c-13.200012,0.099976 -24.200012,0 -24.5,-0.200012c-0.200012,-0.299988 2,-4.799988 4.899994,-10c4.200012,-7.5 5.899994,-9.599976 7.600006,-9.599976c2,0 2.199982,0.599976 2.5,5.700012zm-106.000015,33c0.300003,12 0.400009,12.799988 2.300003,12.799988c1.900009,0 2,-0.799988 2.300003,-12.799988l0.300003,-12.700012l2.899994,0l2.900009,0l0.299988,12.700012c0.300003,12 0.400009,12.799988 2.300003,12.799988c1.900009,0 2,-0.799988 2.300003,-12.799988l0.300003,-12.700012l2.899994,0l2.900009,0l0.299988,12.700012c0.300003,12 0.400009,12.799988 2.300003,12.799988c1.900009,0 2,-0.799988 2.300003,-12.799988l0.300003,-12.700012l2.899994,0l2.900009,0l0.299988,12.700012c0.300003,12 0.400009,12.799988 2.300003,12.799988c1.899994,0 2,-0.799988 2.300018,-12.799988l0.299988,-12.700012l2.899994,0l2.899994,0l0.300018,12.700012c0.299988,12 0.399994,12.799988 2.299988,12.799988c1.899994,0 2,-0.799988 2.300018,-12.799988c0.299988,-12.700012 0.299988,-12.700012 2.699982,-12.700012c1.899994,0 4.899994,3.299988 15.200012,16.5c7,9.099976 12.899994,17 13.100006,17.5c0.199982,0.599976 -20.700012,0.900024 -55.200012,0.900024c-30.600006,0 -55.600006,-0.200012 -55.600006,-0.5c0,-0.300049 5.900009,-8.200012 13.100006,-17.5c10.5,-13.600037 13.5,-16.900024 15.399994,-16.900024c2.400009,0 2.400009,0 2.699997,12.700012zm68.600021,28.5c-0.400024,1 -9.800018,1.299988 -42.800018,1.299988c-33,0 -42.399994,-0.299988 -42.699997,-1.299988c-0.399994,-0.900024 8.600006,-1.200012 42.699997,-1.200012c34.100006,0 43.100006,0.299988 42.800018,1.200012z"/>
  <path id="svg_13" d="m134,404c0,0.5 0.5,1 1,1c0.600006,0 1,-0.5 1,-1c0,-0.600006 -0.399994,-1 -1,-1c-0.5,0 -1,0.399994 -1,1z"/>
  <path id="svg_14" d="m134,446.5c0,0.799988 0.5,1.5 1,1.5c0.600006,0 1,-0.700012 1,-1.5c0,-0.800018 -0.399994,-1.5 -1,-1.5c-0.5,0 -1,0.699982 -1,1.5z"/>
  <path id="svg_15" d="m202.600006,431.5c-4.699997,4.299988 -6,12.199982 -3.199997,18.899994c2.799988,6.799988 1.599991,6.600006 46.599991,6.600006c45,0 43.800018,0.199982 46.600006,-6.600006c2.799988,-6.700012 1.5,-14.600006 -3.200012,-18.899994l-2.699982,-2.5l-40.700012,0l-40.699997,0l-2.699997,2.5zm82.399994,3.5c4,2.199982 4.800018,11.199982 1.200012,15.199982c-1.399994,1.700012 -4.600006,1.800018 -40.200012,1.800018c-35.599991,0 -38.800003,-0.100006 -40.199997,-1.800018c-3.5,-3.899994 -2.899994,-12.899994 1,-15.199982c2.300003,-1.300018 75.699997,-1.300018 78.199997,0z"/>
  <path id="svg_16" d="m342,422c0,0.5 0.5,1 1,1c0.600006,0 1,-0.5 1,-1c0,-0.600006 -0.399994,-1 -1,-1c-0.5,0 -1,0.399994 -1,1z"/>
  <path id="svg_17" d="m357,422c0,0.5 0.5,1 1,1c0.600006,0 1,-0.5 1,-1c0,-0.600006 -0.399994,-1 -1,-1c-0.5,0 -1,0.399994 -1,1z"/>
  <path id="svg_18" d="m342,446.5c0,0.799988 0.5,1.5 1,1.5c0.600006,0 1,-0.700012 1,-1.5c0,-0.800018 -0.399994,-1.5 -1,-1.5c-0.5,0 -1,0.699982 -1,1.5z"/>
  <path id="svg_19" d="m357,446.5c0,0.799988 0.5,1.5 1,1.5c0.600006,0 1,-0.700012 1,-1.5c0,-0.800018 -0.399994,-1.5 -1,-1.5c-0.5,0 -1,0.699982 -1,1.5z"/>
  <path id="svg_20" d="m135.199997,464.199982c-1.899994,1.899994 -1.399994,3.700012 1.100006,4.300018c1.199997,0.299988 6.5,0.5 11.699997,0.299988c8.400009,-0.299988 9.5,-0.5 9.800003,-2.200012c0.199997,-1 -0.199997,-2.199982 -1,-2.699982c-2.100006,-1.399994 -20.199997,-1.100006 -21.600006,0.299988z"/>
  <path id="svg_21" d="m135,472.5c-0.699997,0.799988 -1,2.199982 -0.599991,3c0.399994,1.199982 2.599991,1.5 11.599991,1.5c9,0 11.199997,-0.300018 11.600006,-1.5c1.399994,-3.400024 -1.5,-4.5 -11.600006,-4.5c-7.399994,0 -10.099991,0.399994 -11,1.5z"/>
  <path id="svg_22" d="m134.300003,481.5c-1.100006,3 1.199997,3.599976 12.300003,3.299988c10.099991,-0.299988 10.899994,-0.399994 10.899994,-2.299988c0,-1.900024 -0.800003,-2 -11.300003,-2.300018c-9.5,-0.199982 -11.299988,0 -11.899994,1.300018z"/>
  <path id="svg_23" d="m134.300003,489.5c-1.100006,3 1.199997,3.599976 12.300003,3.299988c10.099991,-0.299988 10.899994,-0.399994 10.899994,-2.299988c0,-1.900024 -0.800003,-2 -11.300003,-2.300018c-9.5,-0.199982 -11.299988,0 -11.899994,1.300018z"/>
  <path id="svg_24" d="m134.300003,497.5c-1.100006,3 1.199997,3.599976 12.300003,3.299988c10.099991,-0.299988 10.899994,-0.399994 10.899994,-2.299988c0,-1.900024 -0.800003,-2 -11.300003,-2.300018c-9.5,-0.199982 -11.299988,0 -11.899994,1.300018z"/>
  <path id="svg_25" d="m134.300003,505.5c-1.100006,3 1.199997,3.599976 12.300003,3.299988c10.099991,-0.299988 10.899994,-0.399994 10.899994,-2.299988c0,-1.900024 -0.800003,-2 -11.300003,-2.300018c-9.5,-0.199982 -11.299988,0 -11.899994,1.300018z"/>
  <path id="svg_26" d="m134.400009,513.5c-1.300003,3.399963 1.399994,4.5 11.5,4.5c10.299988,0 12.5,-0.700012 11.899994,-3.600037c-0.300003,-1.699951 -1.5,-1.899963 -11.600006,-2.199951c-9.399994,-0.200012 -11.299988,0 -11.799988,1.299988z"/>
  <path id="svg_27" d="m174.199997,462.899994c0.200012,0.699982 0.700012,1.199982 1.100006,1.199982c1.199997,-0.099976 0.899994,-1.5 -0.300003,-2c-0.699997,-0.199982 -1.099991,0.200012 -0.800003,0.800018z"/>
  <path id="svg_28" d="m174,490c0,0.5 0.400009,1 0.900009,1c0.599991,0 1.299988,-0.5 1.599991,-1c0.300003,-0.600006 -0.099991,-1 -0.899994,-1c-0.900009,0 -1.600006,0.399994 -1.600006,1z"/>
  <path id="svg_29" d="m324.300018,466.5c-1.100006,3 1.199982,3.599976 12.299988,3.299988c10.100006,-0.299988 10.899994,-0.399994 10.899994,-2.299988c0,-1.900024 -0.799988,-2 -11.299988,-2.300018c-9.5,-0.199982 -11.300018,0 -11.899994,1.300018z"/>
  <path id="svg_30" d="m325,474.5c-1,1.199982 -1,1.799988 0,3c1,1.099976 3.5,1.5 10.899994,1.5c10.300018,0 12.5,-0.700012 11.900024,-3.600006c-0.300018,-1.700012 -1.5,-1.899994 -10.900024,-2.200012c-8.599976,-0.199982 -10.799988,0 -11.899994,1.300018z"/>
  <path id="svg_31" d="m324.300018,483.5c-1.100006,3 1.199982,3.599976 12.299988,3.299988c10.100006,-0.299988 10.899994,-0.399994 10.899994,-2.299988c0,-1.900024 -0.799988,-2 -11.299988,-2.300018c-9.5,-0.199982 -11.300018,0 -11.899994,1.300018z"/>
  <path id="svg_32" d="m325,491.5c-1,1.199982 -1,1.799988 0,3c1,1.099976 3.5,1.5 10.899994,1.5c10.300018,0 12.5,-0.700012 11.900024,-3.600006c-0.300018,-1.700012 -1.5,-1.899994 -10.900024,-2.200012c-8.599976,-0.199982 -10.799988,0 -11.899994,1.300018z"/>
  <path id="svg_33" d="m324.300018,500.5c-1.100006,3 1.199982,3.599976 12.299988,3.299988c10.100006,-0.299988 10.899994,-0.399994 10.899994,-2.299988c0,-1.900024 -0.799988,-2 -11.299988,-2.300018c-9.5,-0.199982 -11.300018,0 -11.899994,1.300018z"/>
  <path id="svg_34" d="m325,508.5c-1,1.199982 -1,1.799988 0,3c1,1.099976 3.5,1.5 10.899994,1.5c10.300018,0 12.5,-0.700012 11.900024,-3.600006c-0.300018,-1.700012 -1.5,-1.899994 -10.900024,-2.200012c-8.599976,-0.199982 -10.799988,0 -11.899994,1.300018z"/>
  <path id="svg_35" d="m324.300018,517.5c-1.100006,3 1.199982,3.599976 12.299988,3.299988c10.100006,-0.299988 10.899994,-0.400024 10.899994,-2.299988c0,-1.900024 -0.799988,-2 -11.299988,-2.299988c-9.5,-0.200012 -11.300018,0 -11.899994,1.299988z"/>
  <path id="svg_36" d="m325,525.5c-1,1.200012 -1,1.799988 0,3c1,1.099976 3.5,1.5 10.899994,1.5c10.300018,0 12.5,-0.700012 11.900024,-3.600037c-0.300018,-1.699951 -1.5,-1.899963 -10.900024,-2.199951c-8.599976,-0.200012 -10.799988,0 -11.899994,1.299988z"/>
  <path id="svg_37" d="m324.300018,534.5c-1.100006,3 1.199982,3.599976 12.299988,3.299988c10.100006,-0.299988 10.899994,-0.400024 10.899994,-2.299988c0,-1.900024 -0.799988,-2 -11.299988,-2.299988c-9.5,-0.200012 -11.300018,0 -11.899994,1.299988z"/>
  <path id="svg_38" d="m325,542.5c-1,1.200012 -1,1.799988 0,3c1,1.099976 3.5,1.5 10.899994,1.5c10.300018,0 12.5,-0.700012 11.900024,-3.600037c-0.300018,-1.699951 -1.5,-1.899963 -10.900024,-2.199951c-8.599976,-0.200012 -10.799988,0 -11.899994,1.299988z"/>
  <path id="svg_39" d="m131.699997,538.599976c-0.799988,0.799988 0.100006,2.400024 1.400009,2.400024c0.5,0 0.899994,-0.700012 0.899994,-1.5c0,-1.5 -1.199997,-2 -2.300003,-0.900024z"/>
  <path id="svg_40" d="m174,539.5c0,0.899963 0.5,1.5 1.100006,1.299988c0.599991,-0.200012 1.099991,-0.799988 1.099991,-1.299988c0,-0.5 -0.5,-1.100037 -1.099991,-1.299988c-0.600006,-0.200012 -1.100006,0.399963 -1.100006,1.299988z"/>
  <path id="svg_41" d="m131.600006,732.799988c-0.300003,0.599976 -0.100006,1.400024 0.5,1.700012c1.5,1 2.5,-0.299988 1.199997,-1.600037c-0.699997,-0.699951 -1.300003,-0.699951 -1.699997,-0.099976z"/>
  <path id="svg_42" d="m174.5,733.099976c-1,1.5 0.300003,2.5 1.600006,1.200012c0.699997,-0.700012 0.699997,-1.299988 0.099991,-1.700012c-0.599991,-0.299988 -1.399994,-0.099976 -1.699997,0.5z"/>
  <path id="svg_43" d="m313,568.5c0,0.799988 0.5,1.5 1,1.5c0.600006,0 1,-0.700012 1,-1.5c0,-0.799988 -0.399994,-1.5 -1,-1.5c-0.5,0 -1,0.700012 -1,1.5z"/>
  <path id="svg_44" d="m355.600006,567.799988c-0.299988,0.599976 -0.100006,1.400024 0.5,1.700012c1.5,1 2.5,-0.299988 1.200012,-1.600037c-0.700012,-0.699951 -1.300018,-0.699951 -1.700012,-0.099976z"/>
  <path id="svg_45" d="m313.600006,732.899963c-0.399994,0.700012 -0.5,1.5 -0.200012,1.800049c0.900024,0.899963 1.900024,-0.400024 1.400024,-1.800049c-0.400024,-1.099976 -0.600006,-1.099976 -1.200012,0z"/>
  <path id="svg_46" d="m355.600006,732.799988c-0.299988,0.599976 -0.100006,1.400024 0.5,1.700012c1.5,1 2.5,-0.299988 1.200012,-1.600037c-0.700012,-0.699951 -1.300018,-0.699951 -1.700012,-0.099976z"/>
  <path id="svg_47" d="m564.5,283.5c-3.099976,3 -3.200012,7.299988 -0.399963,10.899994c1.599976,2.100006 2.899963,2.600006 6.299988,2.600006c5.200012,0 7.799988,-2.400024 7.899963,-7.400024c0.200012,-7.599976 -8.5,-11.5 -13.799988,-6.099976zm9.200012,4.099976c0.799988,2.200012 -1,4.900024 -3.200012,4.900024c-1,0 -2.200012,-0.700012 -2.799988,-1.600006c-1.5,-2.399994 -0.099976,-4.899994 2.799988,-4.899994c1.5,0 2.799988,0.699982 3.200012,1.599976z"/>
  <path id="svg_48" d="m496.899994,362.599976c-1.299988,3.700012 1.100006,7.400024 4.900024,7.400024c3.5,0 5.199982,-1.600006 5.199982,-5c0,-3.5 -1.699982,-5 -5.699982,-5c-2.700012,0 -3.5,0.5 -4.400024,2.599976zm7.100006,2.400024c0,2.099976 -3.299988,2.899994 -4.5,1c-0.899994,-1.5 0.399994,-3 2.600006,-3c1.200012,0 1.899994,0.699982 1.899994,2z"/>
  <path id="svg_49" d="m389.399994,377.5c-0.399994,1 1.100006,3.399994 4,6.5c2.5,2.699982 4.600006,5.199982 4.600006,5.5c0,0.399994 -2.100006,3.099976 -4.600006,6c-4.199982,5 -4.899994,7.5 -2.099976,7.5c0.599976,0 3.299988,-2.100006 6,-4.800018l4.799988,-4.699982l4.100006,4.699982c4,4.800018 7.799988,6.300018 7.799988,3.200012c0,-1 -2.100006,-3.899994 -4.600006,-6.600006l-4.599976,-4.899994l4.599976,-4.899994c2.5,-2.700012 4.600006,-5.600006 4.600006,-6.400024c0,-3.5 -2.5,-2.699982 -7.299988,2.400024l-5.100006,5.299988l-4.5,-5.200012c-4.700012,-5.299988 -6.700012,-6.199982 -7.700012,-3.599976z"/>
  <path id="svg_50" d="m65.099998,386.899994c-1.599998,2.899994 -1.399998,4.600006 0.800003,6.5c2.900002,2.600006 7.300003,1.699982 8.5,-1.700012c1.400002,-3.899994 -0.199997,-6.100006 -4.699997,-6.5c-2.700005,-0.199982 -3.800003,0.200012 -4.600006,1.700012zm6.900002,2.699982c0,1.900024 -2.799995,3 -4.199997,1.600006c-0.800003,-0.799988 -0.800003,-1.5 0.099998,-2.600006c1.400002,-1.699982 4.099998,-1 4.099998,1z"/>
  <path id="svg_51" d="m212.699997,869.700012c-0.299988,1 -0.699997,50.799988 -0.899994,110.799988l-0.300003,109l2.199997,0.300049c1.800003,0.299927 2.200012,-0.300049 2.600006,-3.5c0.300003,-2.100098 0.699997,-52 0.899994,-110.800049l0.300003,-107l-2.199997,-0.299988c-1.399994,-0.200012 -2.300003,0.299988 -2.600006,1.5z"/>
  <path id="svg_52" d="m236.199997,992.200012c-0.899994,1.299988 -2.399994,176.799988 -1.399994,179.600037c0.699997,2.099976 4.100006,1.399902 4.600006,-1.100098c0.299988,-1.199951 0.699997,-41.599976 1,-89.799927c0.5,-86.400024 0.399994,-89.900024 -2.5,-89.900024c-0.400009,0 -1.100006,0.599976 -1.700012,1.200012z"/>
  <path id="svg_53" d="m278.600006,1030.5c-0.299988,0.900024 -0.600006,26.400024 -0.600006,56.599976c0,49 0.200012,55 1.600006,55.599976c0.799988,0.300049 1.899994,0.200073 2.399994,-0.299927c0.399994,-0.5 1,-26.099976 1.200012,-56.900024l0.299988,-56l-2.100006,-0.300049c-1.299988,-0.199951 -2.399994,0.400024 -2.799988,1.300049z"/>
 </g>
</svg>